Coordinates
version=1
nRows=5
nColumns=40
inDegrees=yes

Units are S.I. units (second, meters, Newtons, ...)
Angles are in degrees.

endheader
time	pelvis_tilt	pelvis_list	pelvis_rotation	pelvis_tx	pelvis_ty	pelvis_tz	hip_flexion_r	hip_adduction_r	hip_rotation_r	knee_angle_r	knee_angle_r_beta	ankle_angle_r	subtalar_angle_r	mtp_angle_r	hip_flexion_l	hip_adduction_l	hip_rotation_l	knee_angle_l	knee_angle_l_beta	ankle_angle_l	subtalar_angle_l	mtp_angle_l	lumbar_extension	lumbar_bending	lumbar_rotation	arm_flex_r	arm_add_r	arm_rot_r	elbow_flex_r	pro_sup_r	wrist_flex_r	wrist_dev_r	arm_flex_l	arm_add_l	arm_rot_l	elbow_flex_l	pro_sup_l	wrist_flex_l	wrist_dev_l
     15.80250000	     -5.24088211	     -3.55696303	     10.46472438	      1.01213705	      0.92158028	      0.48896990	      1.13609609	      1.40914690	    -17.48010555	     15.80238347	     15.80238347	     17.50845177	     -5.76052981	     -1.71298866	     26.22544953	     -4.32252450	      3.74179758	     22.78836443	     22.78836443	      4.63576642	     -9.88074682	     -0.74553500	     -8.22860466	      1.89148988	      5.52452408	     56.66642853	    -16.24017770	     -3.87458498	     74.32157061	     44.85392286	      0.00000000	      0.00000000	    -10.99343382	    -10.86456725	     20.08594558	     27.76917142	     43.62093990	      0.00000000	      0.00000000
     15.82657143	     -5.31097456	     -3.47410259	     10.08990145	      1.01372787	      0.92209541	      0.48333441	      0.91633510	      0.75655430	    -17.87043644	     16.23380008	     16.23380008	     17.35043484	     -4.73103391	     -2.21161878	     25.97231881	     -3.90423234	      3.88581832	     23.35726059	     23.35726059	      5.82576773	    -10.59920464	      1.17876699	     -8.06664539	      1.87950711	      5.29510226	     57.17492146	    -15.78686823	     -3.19576415	     72.06912390	     44.93487458	      0.00000000	      0.00000000	    -10.77061811	    -11.14004716	     20.21691464	     28.08622497	     43.68581597	      0.00000000	      0.00000000
     15.85064286	     -5.31685163	     -3.47223770	      9.68134986	      1.01533703	      0.92267277	      0.47790421	      0.65764859	      0.31201499	    -17.70105897	     16.60885232	     16.60885232	     17.08881729	     -4.58727017	     -2.26637608	     25.61388724	     -3.69874312	      3.66629513	     23.77719821	     23.77719821	      6.43978343	    -10.95526860	      1.16974961	     -8.02018563	      1.94640556	      5.47878965	     56.94218817	    -15.76090143	     -3.13482882	     71.53396987	     44.95431276	      0.00000000	      0.00000000	    -10.33984582	    -11.40441179	     20.15539966	     28.27758134	     43.71561002	      0.00000000	      0.00000000
     15.87471429	     -5.36282964	     -3.43564003	      9.27834640	      1.01682100	      0.92320845	      0.47244228	      0.50093267	     -0.22919451	    -17.64496088	     17.09795742	     17.09795742	     16.84646129	     -4.24948805	     -2.48668970	     25.21361821	     -3.43608021	      3.43422195	     24.03951062	     24.03951062	      7.07173690	    -11.29741658	      1.44446921	     -7.90695021	      1.98866997	      5.67096497	     56.73419392	    -15.75674413	     -3.04319212	     70.45758530	     44.99320633	      0.00000000	      0.00000000	     -9.86246458	    -11.70499515	     20.11219588	     28.51802264	     43.75080356	      0.00000000	      0.00000000
     15.89878571	     -5.37724506	     -3.43013132	      8.89284180	      1.01824399	      0.92380808	      0.46703367	      0.25206577	     -0.72094917	    -17.70878146	     17.42336871	     17.42336871	     16.41965312	     -3.76864147	     -3.06936654	     24.83277385	     -3.19397787	      3.24431335	     24.39433257	     24.39433257	      8.08340794	    -11.46919437	      2.69879941	     -7.79143395	      2.09277812	      5.24678374	     56.91371483	    -14.98344229	     -2.71054977	     68.13128452	     45.08505297	      0.00000000	      0.00000000	     -9.76872698	    -11.99925920	     20.24202643	     28.86573724	     43.82552504	      0.00000000	      0.00000000
